<svg width="22" height="18" viewBox="0 0 22 18" fill="none" xmlns="http://www.w3.org/2000/svg">
<path d="M20.2812 0.0625H1.71875C1.44539 0.0629847 1.18337 0.17179 0.990081 0.365081C0.79679 0.558373 0.687985 0.820394 0.6875 1.09375V16.9062C0.687985 17.1796 0.79679 17.4416 0.990081 17.6349C1.18337 17.8282 1.44539 17.937 1.71875 17.9375H5.5V15.4103C5.5 15.0885 5.676 14.8089 5.93725 14.6613L5.94183 14.6595L9.89358 12.4632L8.59283 9.21267V6.59467C8.59283 5.95649 8.84635 5.34445 9.29761 4.89319C9.74887 4.44193 10.3609 4.18842 10.9991 4.18842C11.6373 4.18842 12.2493 4.44193 12.7006 4.89319C13.1518 5.34445 13.4053 5.95649 13.4053 6.59467V9.21267L12.1046 12.4632L16.0572 14.6595C16.3231 14.8089 16.4991 15.0894 16.4991 15.4103V17.9375H20.2803C20.5537 17.937 20.8157 17.8282 21.009 17.6349C21.2023 17.4416 21.3111 17.1796 21.3116 16.9062V1.09375C21.3111 0.820394 21.2023 0.558373 21.009 0.365081C20.8157 0.17179 20.5546 0.0629847 20.2812 0.0625ZM19.9375 16.5625H17.875V15.4103C17.875 14.5752 17.4167 13.8464 16.7374 13.4633L16.7264 13.4578L13.8325 11.849L14.7812 9.47667V6.59467C14.7812 5.59182 14.3829 4.63004 13.6737 3.92092C12.9646 3.2118 12.0028 2.81342 11 2.81342C9.99715 2.81342 9.03537 3.2118 8.32625 3.92092C7.61713 4.63004 7.21875 5.59182 7.21875 6.59467V9.47667L8.1675 11.849L5.27358 13.4578C4.92571 13.6516 4.63586 13.9347 4.43396 14.2779C4.23205 14.6211 4.12539 15.012 4.125 15.4103V16.5625H2.0625V1.4375H19.9375V16.5625Z" fill="#FF8383"/>
</svg>
