<svg width="22" height="18" viewBox="0 0 22 18" fill="none" xmlns="http://www.w3.org/2000/svg">
<mask id="path-1-inside-1" fill="white">
<path d="M11.2398 5.36782C12.5488 5.36782 13.8042 5.86373 14.7298 6.74644C15.6554 7.62916 16.1754 8.82637 16.1754 10.0747C16.1754 11.3231 15.6554 12.5203 14.7298 13.403C13.8042 14.2857 12.5488 14.7816 11.2398 14.7816C9.93083 14.7816 8.67546 14.2857 7.74986 13.403C6.82426 12.5203 6.30427 11.3231 6.30427 10.0747C6.30427 8.82637 6.82426 7.62916 7.74986 6.74644C8.67546 5.86373 9.93083 5.36782 11.2398 5.36782ZM11.2398 6.4138C10.2217 6.4138 9.24532 6.7995 8.52541 7.48606C7.8055 8.17261 7.40106 9.10378 7.40106 10.0747C7.40106 11.0457 7.8055 11.9768 8.52541 12.6634C9.24532 13.3499 10.2217 13.7356 11.2398 13.7356C12.2579 13.7356 13.2343 13.3499 13.9542 12.6634C14.6742 11.9768 15.0786 11.0457 15.0786 10.0747C15.0786 9.10378 14.6742 8.17261 13.9542 7.48606C13.2343 6.7995 12.2579 6.4138 11.2398 6.4138ZM4.11068 2.22989H6.30427L8.49785 0.137939H13.9818L16.1754 2.22989H18.369C19.2416 2.22989 20.0785 2.5605 20.6956 3.14897C21.3127 3.73745 21.6593 4.53559 21.6593 5.36782V14.7816C21.6593 15.6138 21.3127 16.412 20.6956 17.0005C20.0785 17.5889 19.2416 17.9195 18.369 17.9195H4.11068C3.23802 17.9195 2.4011 17.5889 1.78404 17.0005C1.16698 16.412 0.820313 15.6138 0.820312 14.7816V5.36782C0.820313 4.53559 1.16698 3.73745 1.78404 3.14897C2.4011 2.5605 3.23802 2.22989 4.11068 2.22989ZM8.95192 1.18392L6.75834 3.27587H4.11068C3.52891 3.27587 2.97096 3.49627 2.55959 3.88859C2.14821 4.28091 1.9171 4.813 1.9171 5.36782V14.7816C1.9171 15.3364 2.14821 15.8685 2.55959 16.2608C2.97096 16.6532 3.52891 16.8736 4.11068 16.8736H18.369C18.9507 16.8736 19.5087 16.6532 19.9201 16.2608C20.3314 15.8685 20.5625 15.3364 20.5625 14.7816V5.36782C20.5625 4.813 20.3314 4.28091 19.9201 3.88859C19.5087 3.49627 18.9507 3.27587 18.369 3.27587H15.7213L13.5277 1.18392H8.95192Z"/>
</mask>
<path d="M11.2398 5.36782C12.5488 5.36782 13.8042 5.86373 14.7298 6.74644C15.6554 7.62916 16.1754 8.82637 16.1754 10.0747C16.1754 11.3231 15.6554 12.5203 14.7298 13.403C13.8042 14.2857 12.5488 14.7816 11.2398 14.7816C9.93083 14.7816 8.67546 14.2857 7.74986 13.403C6.82426 12.5203 6.30427 11.3231 6.30427 10.0747C6.30427 8.82637 6.82426 7.62916 7.74986 6.74644C8.67546 5.86373 9.93083 5.36782 11.2398 5.36782ZM11.2398 6.4138C10.2217 6.4138 9.24532 6.7995 8.52541 7.48606C7.8055 8.17261 7.40106 9.10378 7.40106 10.0747C7.40106 11.0457 7.8055 11.9768 8.52541 12.6634C9.24532 13.3499 10.2217 13.7356 11.2398 13.7356C12.2579 13.7356 13.2343 13.3499 13.9542 12.6634C14.6742 11.9768 15.0786 11.0457 15.0786 10.0747C15.0786 9.10378 14.6742 8.17261 13.9542 7.48606C13.2343 6.7995 12.2579 6.4138 11.2398 6.4138ZM4.11068 2.22989H6.30427L8.49785 0.137939H13.9818L16.1754 2.22989H18.369C19.2416 2.22989 20.0785 2.5605 20.6956 3.14897C21.3127 3.73745 21.6593 4.53559 21.6593 5.36782V14.7816C21.6593 15.6138 21.3127 16.412 20.6956 17.0005C20.0785 17.5889 19.2416 17.9195 18.369 17.9195H4.11068C3.23802 17.9195 2.4011 17.5889 1.78404 17.0005C1.16698 16.412 0.820313 15.6138 0.820312 14.7816V5.36782C0.820313 4.53559 1.16698 3.73745 1.78404 3.14897C2.4011 2.5605 3.23802 2.22989 4.11068 2.22989ZM8.95192 1.18392L6.75834 3.27587H4.11068C3.52891 3.27587 2.97096 3.49627 2.55959 3.88859C2.14821 4.28091 1.9171 4.813 1.9171 5.36782V14.7816C1.9171 15.3364 2.14821 15.8685 2.55959 16.2608C2.97096 16.6532 3.52891 16.8736 4.11068 16.8736H18.369C18.9507 16.8736 19.5087 16.6532 19.9201 16.2608C20.3314 15.8685 20.5625 15.3364 20.5625 14.7816V5.36782C20.5625 4.813 20.3314 4.28091 19.9201 3.88859C19.5087 3.49627 18.9507 3.27587 18.369 3.27587H15.7213L13.5277 1.18392H8.95192Z" fill="#FF8383"/>
<path d="M6.30427 10.0747H4.30427H6.30427ZM7.40106 10.0747H5.40106H7.40106ZM11.2398 13.7356V15.7356V13.7356ZM15.0786 10.0747H17.0786H15.0786ZM6.30427 2.22989V4.22989H7.10505L7.68456 3.67724L6.30427 2.22989ZM8.49785 0.137939V-1.86206H7.69706L7.11756 -1.3094L8.49785 0.137939ZM13.9818 0.137939L15.3621 -1.3094L14.7826 -1.86206H13.9818V0.137939ZM16.1754 2.22989L14.7951 3.67724L15.3746 4.22989H16.1754V2.22989ZM21.6593 5.36782H23.6593H21.6593ZM21.6593 14.7816H23.6593H21.6593ZM18.369 17.9195V19.9195V17.9195ZM4.11068 17.9195V19.9195V17.9195ZM0.820312 14.7816H-1.17969H0.820312ZM0.820312 5.36782H-1.17969H0.820312ZM8.95192 1.18392V-0.816084H8.15113L7.57163 -0.263427L8.95192 1.18392ZM6.75834 3.27587V5.27587H7.55912L8.13863 4.72321L6.75834 3.27587ZM4.11068 3.27587V1.27587V3.27587ZM1.9171 5.36782H-0.0828967H1.9171ZM1.9171 14.7816H-0.0828967H1.9171ZM18.369 3.27587V1.27587V3.27587ZM15.7213 3.27587L14.341 4.72321L14.9205 5.27587H15.7213V3.27587ZM13.5277 1.18392L14.908 -0.263427L14.3285 -0.816084H13.5277V1.18392ZM11.2398 7.36782C12.0482 7.36782 12.8055 7.67495 13.3495 8.19378L16.1101 5.2991C14.8029 4.0525 13.0494 3.36782 11.2398 3.36782V7.36782ZM13.3495 8.19378C13.8903 8.70954 14.1754 9.38824 14.1754 10.0747H18.1754C18.1754 8.2645 17.4205 6.54877 16.1101 5.2991L13.3495 8.19378ZM14.1754 10.0747C14.1754 10.7612 13.8903 11.4399 13.3495 11.9557L16.1101 14.8503C17.4205 13.6007 18.1754 11.8849 18.1754 10.0747H14.1754ZM13.3495 11.9557C12.8055 12.4745 12.0482 12.7816 11.2398 12.7816V16.7816C13.0494 16.7816 14.8029 16.0969 16.1101 14.8503L13.3495 11.9557ZM11.2398 12.7816C10.4315 12.7816 9.67418 12.4745 9.13015 11.9557L6.36957 14.8503C7.67673 16.0969 9.43021 16.7816 11.2398 16.7816V12.7816ZM9.13015 11.9557C8.58934 11.4399 8.30427 10.7612 8.30427 10.0747H4.30427C4.30427 11.8849 5.05919 13.6007 6.36957 14.8503L9.13015 11.9557ZM8.30427 10.0747C8.30427 9.38824 8.58934 8.70954 9.13015 8.19378L6.36957 5.2991C5.05919 6.54877 4.30427 8.2645 4.30427 10.0747H8.30427ZM9.13015 8.19378C9.67418 7.67495 10.4315 7.36782 11.2398 7.36782V3.36782C9.43021 3.36782 7.67673 4.0525 6.36957 5.2991L9.13015 8.19378ZM11.2398 4.4138C9.72109 4.4138 8.24659 4.98828 7.14512 6.03871L9.90569 8.9334C10.244 8.61073 10.7223 8.4138 11.2398 8.4138V4.4138ZM7.14512 6.03871C6.04042 7.09223 5.40106 8.54191 5.40106 10.0747H9.40106C9.40106 9.66565 9.57057 9.253 9.90569 8.9334L7.14512 6.03871ZM5.40106 10.0747C5.40106 11.6075 6.04042 13.0572 7.14512 14.1107L9.90569 11.216C9.57057 10.8964 9.40106 10.4838 9.40106 10.0747H5.40106ZM7.14512 14.1107C8.24659 15.1612 9.72109 15.7356 11.2398 15.7356V11.7356C10.7223 11.7356 10.244 11.5387 9.90569 11.216L7.14512 14.1107ZM11.2398 15.7356C12.7586 15.7356 14.2331 15.1612 15.3345 14.1107L12.574 11.216C12.2356 11.5387 11.7573 11.7356 11.2398 11.7356V15.7356ZM15.3345 14.1107C16.4392 13.0572 17.0786 11.6075 17.0786 10.0747H13.0786C13.0786 10.4838 12.9091 10.8964 12.574 11.216L15.3345 14.1107ZM17.0786 10.0747C17.0786 8.54191 16.4392 7.09223 15.3345 6.03871L12.574 8.9334C12.9091 9.253 13.0786 9.66565 13.0786 10.0747H17.0786ZM15.3345 6.03871C14.2331 4.98828 12.7586 4.4138 11.2398 4.4138V8.4138C11.7573 8.4138 12.2356 8.61073 12.574 8.9334L15.3345 6.03871ZM4.11068 4.22989H6.30427V0.229893H4.11068V4.22989ZM7.68456 3.67724L9.87814 1.58528L7.11756 -1.3094L4.92398 0.782549L7.68456 3.67724ZM8.49785 2.13794H13.9818V-1.86206H8.49785V2.13794ZM12.6015 1.58528L14.7951 3.67724L17.5557 0.782549L15.3621 -1.3094L12.6015 1.58528ZM16.1754 4.22989H18.369V0.229893H16.1754V4.22989ZM18.369 4.22989C18.741 4.22989 19.0798 4.37172 19.3153 4.59632L22.0759 1.70163C21.0773 0.749267 19.7423 0.229893 18.369 0.229893V4.22989ZM19.3153 4.59632C19.5476 4.81783 19.6593 5.09746 19.6593 5.36782H23.6593C23.6593 3.97372 23.0778 2.65706 22.0759 1.70163L19.3153 4.59632ZM19.6593 5.36782V14.7816H23.6593V5.36782H19.6593ZM19.6593 14.7816C19.6593 15.052 19.5476 15.3316 19.3153 15.5531L22.0759 18.4478C23.0778 17.4924 23.6593 16.1757 23.6593 14.7816H19.6593ZM19.3153 15.5531C19.0798 15.7777 18.741 15.9195 18.369 15.9195V19.9195C19.7423 19.9195 21.0773 19.4002 22.0759 18.4478L19.3153 15.5531ZM18.369 15.9195H4.11068V19.9195H18.369V15.9195ZM4.11068 15.9195C3.73865 15.9195 3.39983 15.7777 3.16433 15.5531L0.403752 18.4478C1.40238 19.4002 2.7374 19.9195 4.11068 19.9195V15.9195ZM3.16433 15.5531C2.93205 15.3316 2.82031 15.052 2.82031 14.7816H-1.17969C-1.17969 16.1757 -0.5981 17.4924 0.403752 18.4478L3.16433 15.5531ZM2.82031 14.7816V5.36782H-1.17969V14.7816H2.82031ZM2.82031 5.36782C2.82031 5.09746 2.93205 4.81783 3.16433 4.59632L0.403752 1.70163C-0.598099 2.65706 -1.17969 3.97372 -1.17969 5.36782H2.82031ZM3.16433 4.59632C3.39983 4.37172 3.73865 4.22989 4.11068 4.22989V0.229893C2.7374 0.229893 1.40238 0.749268 0.403752 1.70163L3.16433 4.59632ZM7.57163 -0.263427L5.37805 1.82853L8.13863 4.72321L10.3322 2.63126L7.57163 -0.263427ZM6.75834 1.27587H4.11068V5.27587H6.75834V1.27587ZM4.11068 1.27587C3.02828 1.27587 1.97224 1.68504 1.1793 2.44125L3.93988 5.33593C3.96969 5.3075 4.02954 5.27587 4.11068 5.27587V1.27587ZM1.1793 2.44125C0.383136 3.20052 -0.0828967 4.25113 -0.0828967 5.36782H3.9171C3.9171 5.36925 3.91664 5.36837 3.91852 5.36403C3.92047 5.35954 3.92599 5.34918 3.93988 5.33593L1.1793 2.44125ZM-0.0828967 5.36782V14.7816H3.9171V5.36782H-0.0828967ZM-0.0828967 14.7816C-0.0828967 15.8983 0.383137 16.9489 1.1793 17.7082L3.93988 14.8135C3.92599 14.8003 3.92047 14.7899 3.91852 14.7854C3.91664 14.7811 3.9171 14.7802 3.9171 14.7816H-0.0828967ZM1.1793 17.7082C1.97224 18.4644 3.02828 18.8736 4.11068 18.8736V14.8736C4.02954 14.8736 3.96969 14.8419 3.93988 14.8135L1.1793 17.7082ZM4.11068 18.8736H18.369V14.8736H4.11068V18.8736ZM18.369 18.8736C19.4514 18.8736 20.5074 18.4644 21.3004 17.7082L18.5398 14.8135C18.51 14.8419 18.4501 14.8736 18.369 14.8736V18.8736ZM21.3004 17.7082C22.0965 16.9489 22.5625 15.8983 22.5625 14.7816H18.5625C18.5625 14.7802 18.563 14.7811 18.5611 14.7854C18.5592 14.7899 18.5537 14.8003 18.5398 14.8135L21.3004 17.7082ZM22.5625 14.7816V5.36782H18.5625V14.7816H22.5625ZM22.5625 5.36782C22.5625 4.25113 22.0965 3.20052 21.3004 2.44125L18.5398 5.33593C18.5537 5.34918 18.5592 5.35954 18.5611 5.36403C18.563 5.36837 18.5625 5.36925 18.5625 5.36782H22.5625ZM21.3004 2.44125C20.5074 1.68504 19.4514 1.27587 18.369 1.27587V5.27587C18.4501 5.27587 18.51 5.3075 18.5398 5.33593L21.3004 2.44125ZM18.369 1.27587H15.7213V5.27587H18.369V1.27587ZM17.1016 1.82853L14.908 -0.263427L12.1474 2.63126L14.341 4.72321L17.1016 1.82853ZM13.5277 -0.816084H8.95192V3.18392H13.5277V-0.816084Z" fill="#FF8383" mask="url(#path-1-inside-1)"/>
</svg>
