<svg width="28" height="24" viewBox="0 0 28 24" fill="none" xmlns="http://www.w3.org/2000/svg">
<mask id="path-1-inside-1" fill="white">
<path d="M14.1012 6.94253C15.7919 6.94253 17.4134 7.59102 18.609 8.74534C19.8045 9.89966 20.4762 11.4652 20.4762 13.0977C20.4762 14.7302 19.8045 16.2957 18.609 17.4501C17.4134 18.6044 15.7919 19.2529 14.1012 19.2529C12.4104 19.2529 10.7889 18.6044 9.59335 17.4501C8.39781 16.2957 7.72616 14.7302 7.72616 13.0977C7.72616 11.4652 8.39781 9.89966 9.59335 8.74534C10.7889 7.59102 12.4104 6.94253 14.1012 6.94253ZM14.1012 8.31035C12.7861 8.31035 11.525 8.81473 10.5951 9.71253C9.66522 10.6103 9.14282 11.828 9.14282 13.0977C9.14282 14.3674 9.66522 15.5851 10.5951 16.4829C11.525 17.3807 12.7861 17.8851 14.1012 17.8851C15.4162 17.8851 16.6774 17.3807 17.6072 16.4829C18.5371 15.5851 19.0595 14.3674 19.0595 13.0977C19.0595 11.828 18.5371 10.6103 17.6072 9.71253C16.6774 8.81473 15.4162 8.31035 14.1012 8.31035ZM4.89282 2.83908H7.72616L10.5595 0.103451H17.6428L20.4762 2.83908H23.3095C24.4367 2.83908 25.5177 3.27141 26.3147 4.04095C27.1117 4.8105 27.5595 5.85423 27.5595 6.94253V19.2529C27.5595 20.3412 27.1117 21.3849 26.3147 22.1544C25.5177 22.924 24.4367 23.3563 23.3095 23.3563H4.89282C3.76565 23.3563 2.68465 22.924 1.88762 22.1544C1.09059 21.3849 0.642822 20.3412 0.642822 19.2529V6.94253C0.642822 5.85423 1.09059 4.8105 1.88762 4.04095C2.68465 3.27141 3.76565 2.83908 4.89282 2.83908ZM11.146 1.47127L8.31266 4.2069H4.89282C4.14138 4.2069 3.42071 4.49512 2.88935 5.00815C2.358 5.52118 2.05949 6.217 2.05949 6.94253V19.2529C2.05949 19.9784 2.358 20.6742 2.88935 21.1873C3.42071 21.7003 4.14138 21.9885 4.89282 21.9885H23.3095C24.0609 21.9885 24.7816 21.7003 25.313 21.1873C25.8443 20.6742 26.1428 19.9784 26.1428 19.2529V6.94253C26.1428 6.217 25.8443 5.52118 25.313 5.00815C24.7816 4.49512 24.0609 4.2069 23.3095 4.2069H19.8897L17.0563 1.47127H11.146Z"/>
</mask>
<path d="M14.1012 6.94253C15.7919 6.94253 17.4134 7.59102 18.609 8.74534C19.8045 9.89966 20.4762 11.4652 20.4762 13.0977C20.4762 14.7302 19.8045 16.2957 18.609 17.4501C17.4134 18.6044 15.7919 19.2529 14.1012 19.2529C12.4104 19.2529 10.7889 18.6044 9.59335 17.4501C8.39781 16.2957 7.72616 14.7302 7.72616 13.0977C7.72616 11.4652 8.39781 9.89966 9.59335 8.74534C10.7889 7.59102 12.4104 6.94253 14.1012 6.94253ZM14.1012 8.31035C12.7861 8.31035 11.525 8.81473 10.5951 9.71253C9.66522 10.6103 9.14282 11.828 9.14282 13.0977C9.14282 14.3674 9.66522 15.5851 10.5951 16.4829C11.525 17.3807 12.7861 17.8851 14.1012 17.8851C15.4162 17.8851 16.6774 17.3807 17.6072 16.4829C18.5371 15.5851 19.0595 14.3674 19.0595 13.0977C19.0595 11.828 18.5371 10.6103 17.6072 9.71253C16.6774 8.81473 15.4162 8.31035 14.1012 8.31035ZM4.89282 2.83908H7.72616L10.5595 0.103451H17.6428L20.4762 2.83908H23.3095C24.4367 2.83908 25.5177 3.27141 26.3147 4.04095C27.1117 4.8105 27.5595 5.85423 27.5595 6.94253V19.2529C27.5595 20.3412 27.1117 21.3849 26.3147 22.1544C25.5177 22.924 24.4367 23.3563 23.3095 23.3563H4.89282C3.76565 23.3563 2.68465 22.924 1.88762 22.1544C1.09059 21.3849 0.642822 20.3412 0.642822 19.2529V6.94253C0.642822 5.85423 1.09059 4.8105 1.88762 4.04095C2.68465 3.27141 3.76565 2.83908 4.89282 2.83908ZM11.146 1.47127L8.31266 4.2069H4.89282C4.14138 4.2069 3.42071 4.49512 2.88935 5.00815C2.358 5.52118 2.05949 6.217 2.05949 6.94253V19.2529C2.05949 19.9784 2.358 20.6742 2.88935 21.1873C3.42071 21.7003 4.14138 21.9885 4.89282 21.9885H23.3095C24.0609 21.9885 24.7816 21.7003 25.313 21.1873C25.8443 20.6742 26.1428 19.9784 26.1428 19.2529V6.94253C26.1428 6.217 25.8443 5.52118 25.313 5.00815C24.7816 4.49512 24.0609 4.2069 23.3095 4.2069H19.8897L17.0563 1.47127H11.146Z" fill="white"/>
<path d="M7.72616 13.0977H5.72616H7.72616ZM9.14282 13.0977H7.14282H9.14282ZM14.1012 17.8851V19.8851V17.8851ZM19.0595 13.0977H21.0595H19.0595ZM7.72616 2.83908V4.83908H8.53411L9.11535 4.27789L7.72616 2.83908ZM10.5595 0.103451V-1.89655H9.75154L9.1703 -1.33535L10.5595 0.103451ZM17.6428 0.103451L19.032 -1.33535L18.4508 -1.89655H17.6428V0.103451ZM20.4762 2.83908L19.087 4.27789L19.6682 4.83908H20.4762V2.83908ZM27.5595 6.94253H29.5595H27.5595ZM27.5595 19.2529H29.5595H27.5595ZM23.3095 23.3563V25.3563V23.3563ZM4.89282 23.3563V25.3563V23.3563ZM0.642822 19.2529H-1.35718H0.642822ZM0.642822 6.94253H-1.35718H0.642822ZM11.146 1.47127V-0.528733H10.338L9.7568 0.0324636L11.146 1.47127ZM8.31266 4.2069V6.2069H9.12061L9.70185 5.6457L8.31266 4.2069ZM4.89282 4.2069V2.2069V4.2069ZM2.05949 6.94253H0.0594893H2.05949ZM2.05949 19.2529H0.0594893H2.05949ZM23.3095 4.2069V2.2069V4.2069ZM19.8897 4.2069L18.5005 5.6457L19.0817 6.2069H19.8897V4.2069ZM17.0563 1.47127L18.4455 0.0324634L17.8643 -0.528733H17.0563V1.47127ZM14.1012 8.94253C15.2837 8.94253 16.4043 9.39675 17.2198 10.1841L19.9982 7.30654C18.4226 5.78529 16.3001 4.94253 14.1012 4.94253L14.1012 8.94253ZM17.2198 10.1841C18.0329 10.9692 18.4762 12.0188 18.4762 13.0977H22.4762C22.4762 10.9117 21.5761 8.83008 19.9982 7.30654L17.2198 10.1841ZM18.4762 13.0977C18.4762 14.1766 18.0329 15.2262 17.2198 16.0113L19.9982 18.8889C21.5761 17.3653 22.4762 15.2837 22.4762 13.0977H18.4762ZM17.2198 16.0113C16.4043 16.7987 15.2837 17.2529 14.1012 17.2529V21.2529C16.3001 21.2529 18.4226 20.4101 19.9982 18.8889L17.2198 16.0113ZM14.1012 17.2529C12.9186 17.2529 11.7981 16.7987 10.9825 16.0113L8.20416 18.8889C9.77974 20.4101 11.9022 21.2529 14.1012 21.2529V17.2529ZM10.9825 16.0113C10.1694 15.2262 9.72616 14.1766 9.72616 13.0977H5.72616C5.72616 15.2837 6.6262 17.3653 8.20416 18.8889L10.9825 16.0113ZM9.72616 13.0977C9.72616 12.0188 10.1694 10.9692 10.9825 10.1841L8.20416 7.30654C6.6262 8.83008 5.72616 10.9117 5.72616 13.0977H9.72616ZM10.9825 10.1841C11.7981 9.39675 12.9186 8.94253 14.1012 8.94253L14.1012 4.94253C11.9022 4.94253 9.77974 5.78529 8.20416 7.30654L10.9825 10.1841ZM14.1012 6.31035C12.2779 6.31035 10.5158 7.009 9.2059 8.27373L11.9843 11.1513C12.5341 10.6205 13.2944 10.3103 14.1012 10.3103V6.31035ZM9.2059 8.27373C7.89362 9.54076 7.14282 11.2745 7.14282 13.0977H11.1428C11.1428 12.3815 11.4368 11.6799 11.9843 11.1513L9.2059 8.27373ZM7.14282 13.0977C7.14282 14.9209 7.89362 16.6546 9.2059 17.9217L11.9843 15.0441C11.4368 14.5155 11.1428 13.8139 11.1428 13.0977H7.14282ZM9.2059 17.9217C10.5158 19.1864 12.2779 19.8851 14.1012 19.8851L14.1012 15.8851C13.2944 15.8851 12.5341 15.5749 11.9843 15.0441L9.2059 17.9217ZM14.1012 19.8851C15.9244 19.8851 17.6865 19.1864 18.9964 17.9217L16.218 15.0441C15.6682 15.5749 14.908 15.8851 14.1012 15.8851V19.8851ZM18.9964 17.9217C20.3087 16.6546 21.0595 14.9209 21.0595 13.0977H17.0595C17.0595 13.8139 16.7655 14.5155 16.218 15.0441L18.9964 17.9217ZM21.0595 13.0977C21.0595 11.2745 20.3087 9.54076 18.9964 8.27373L16.218 11.1513C16.7655 11.6799 17.0595 12.3815 17.0595 13.0977H21.0595ZM18.9964 8.27373C17.6865 7.009 15.9244 6.31035 14.1012 6.31035V10.3103C14.908 10.3103 15.6682 10.6205 16.218 11.1513L18.9964 8.27373ZM4.89282 4.83908H7.72616V0.839082H4.89282V4.83908ZM9.11535 4.27789L11.9487 1.54225L9.1703 -1.33535L6.33697 1.40028L9.11535 4.27789ZM10.5595 2.10345H17.6428V-1.89655H10.5595V2.10345ZM16.2536 1.54225L19.087 4.27789L21.8653 1.40028L19.032 -1.33535L16.2536 1.54225ZM20.4762 4.83908H23.3095V0.839082H20.4762V4.83908ZM23.3095 4.83908C23.9284 4.83908 24.5085 5.07714 24.9255 5.47976L27.7039 2.60215C26.5268 1.46568 24.9449 0.839082 23.3095 0.839082V4.83908ZM24.9255 5.47976C25.3401 5.88007 25.5595 6.40776 25.5595 6.94253H29.5595C29.5595 5.3007 28.8833 3.74093 27.7039 2.60215L24.9255 5.47976ZM25.5595 6.94253V19.2529H29.5595V6.94253H25.5595ZM25.5595 19.2529C25.5595 19.7876 25.3401 20.3153 24.9255 20.7156L27.7039 23.5933C28.8833 22.4545 29.5595 20.8947 29.5595 19.2529H25.5595ZM24.9255 20.7156C24.5085 21.1183 23.9284 21.3563 23.3095 21.3563V25.3563C24.9449 25.3563 26.5268 24.7297 27.7039 23.5933L24.9255 20.7156ZM23.3095 21.3563H4.89282V25.3563H23.3095V21.3563ZM4.89282 21.3563C4.27388 21.3563 3.69381 21.1183 3.27681 20.7156L0.49843 23.5933C1.67549 24.7297 3.25742 25.3563 4.89282 25.3563V21.3563ZM3.27681 20.7156C2.86219 20.3153 2.64282 19.7876 2.64282 19.2529H-1.35718C-1.35718 20.8947 -0.681015 22.4545 0.49843 23.5933L3.27681 20.7156ZM2.64282 19.2529V6.94253H-1.35718V19.2529H2.64282ZM2.64282 6.94253C2.64282 6.40776 2.86219 5.88008 3.27681 5.47976L0.49843 2.60215C-0.681015 3.74093 -1.35718 5.3007 -1.35718 6.94253H2.64282ZM3.27681 5.47976C3.69381 5.07714 4.27388 4.83908 4.89282 4.83908V0.839082C3.25742 0.839082 1.67549 1.46568 0.49843 2.60215L3.27681 5.47976ZM9.7568 0.0324636L6.92347 2.7681L9.70185 5.6457L12.5352 2.91007L9.7568 0.0324636ZM8.31266 2.2069H4.89282V6.2069H8.31266V2.2069ZM4.89282 2.2069C3.63315 2.2069 2.41155 2.68939 1.50016 3.56934L4.27854 6.44695C4.42987 6.30084 4.64961 6.2069 4.89282 6.2069V2.2069ZM1.50016 3.56934C0.586396 4.4516 0.0594893 5.66347 0.0594893 6.94253H4.05949C4.05949 6.77053 4.1296 6.59075 4.27854 6.44695L1.50016 3.56934ZM0.0594893 6.94253V19.2529H4.05949V6.94253H0.0594893ZM0.0594893 19.2529C0.0594893 20.5319 0.586397 21.7438 1.50016 22.6261L4.27854 19.7485C4.1296 19.6047 4.05949 19.4249 4.05949 19.2529H0.0594893ZM1.50016 22.6261C2.41155 23.506 3.63315 23.9885 4.89282 23.9885V19.9885C4.64961 19.9885 4.42987 19.8946 4.27854 19.7485L1.50016 22.6261ZM4.89282 23.9885H23.3095V19.9885H4.89282V23.9885ZM23.3095 23.9885C24.5692 23.9885 25.7908 23.506 26.7022 22.6261L23.9238 19.7485C23.7724 19.8946 23.5527 19.9885 23.3095 19.9885V23.9885ZM26.7022 22.6261C27.6159 21.7438 28.1428 20.5319 28.1428 19.2529H24.1428C24.1428 19.4249 24.0727 19.6046 23.9238 19.7485L26.7022 22.6261ZM28.1428 19.2529V6.94253H24.1428V19.2529H28.1428ZM28.1428 6.94253C28.1428 5.66346 27.6159 4.4516 26.7022 3.56934L23.9238 6.44695C24.0727 6.59075 24.1428 6.77053 24.1428 6.94253H28.1428ZM26.7022 3.56934C25.7908 2.68939 24.5692 2.2069 23.3095 2.2069V6.2069C23.5527 6.2069 23.7724 6.30084 23.9238 6.44695L26.7022 3.56934ZM23.3095 2.2069H19.8897V6.2069H23.3095V2.2069ZM21.2788 2.7681L18.4455 0.0324634L15.6671 2.91007L18.5005 5.6457L21.2788 2.7681ZM17.0563 -0.528733H11.146V3.47127H17.0563V-0.528733Z" fill="white" mask="url(#path-1-inside-1)"/>
</svg>
