<svg width="8" height="15" viewBox="0 0 8 15" fill="none" xmlns="http://www.w3.org/2000/svg">
<path d="M6.83004 15C6.68065 15.0005 6.53304 14.9675 6.39806 14.9035C6.26308 14.8395 6.14416 14.746 6.05004 14.63L1.22004 8.63C1.07296 8.45107 0.992554 8.22663 0.992554 7.995C0.992554 7.76338 1.07296 7.53893 1.22004 7.36L6.22004 1.36C6.38978 1.15578 6.63369 1.02736 6.89812 1.00298C7.16254 0.978601 7.42583 1.06026 7.63004 1.23C7.83426 1.39974 7.96268 1.64365 7.98706 1.90808C8.01144 2.1725 7.92978 2.43578 7.76004 2.64L3.29004 8L7.61004 13.36C7.73232 13.5068 7.81 13.6855 7.83388 13.8751C7.85776 14.0646 7.82684 14.257 7.74479 14.4296C7.66273 14.6021 7.53297 14.7475 7.37086 14.8486C7.20875 14.9497 7.02108 15.0022 6.83004 15Z" fill="#FF8383"/>
</svg>
