<svg width="8" height="15" viewBox="0 0 8 15" fill="none" xmlns="http://www.w3.org/2000/svg">
<path d="M1.16996 15C1.31935 15.0005 1.46696 14.9675 1.60194 14.9035C1.73692 14.8395 1.85584 14.746 1.94996 14.63L6.77996 8.63C6.92704 8.45107 7.00745 8.22663 7.00745 7.995C7.00745 7.76338 6.92704 7.53893 6.77996 7.36L1.77996 1.36C1.61022 1.15578 1.36631 1.02736 1.10188 1.00298C0.837456 0.978601 0.574175 1.06026 0.369958 1.23C0.165742 1.39974 0.0373178 1.64365 0.012938 1.90808C-0.0114417 2.1725 0.0702195 2.43578 0.239958 2.64L4.70996 8L0.389959 13.36C0.267676 13.5068 0.189999 13.6855 0.166119 13.8751C0.14224 14.0646 0.173156 14.257 0.255212 14.4296C0.337268 14.6021 0.467028 14.7475 0.629138 14.8486C0.791249 14.9497 0.978925 15.0022 1.16996 15Z" fill="#FF8383"/>
</svg>
