<svg width="15" height="15" viewBox="0 0 15 15" fill="none" xmlns="http://www.w3.org/2000/svg">
<path d="M8.47912 7.50001L14.2361 1.74306C14.3498 1.61021 14.4093 1.43933 14.4025 1.26455C14.3958 1.08978 14.3233 0.923985 14.1997 0.800309C14.076 0.676632 13.9102 0.604178 13.7354 0.597428C13.5606 0.590677 13.3897 0.650126 13.2569 0.763894L7.49995 6.52084L1.74301 0.756949C1.61224 0.626183 1.43489 0.552719 1.24995 0.552719C1.06502 0.552719 0.887665 0.626183 0.756899 0.756949C0.626132 0.887716 0.552668 1.06507 0.552668 1.25001C0.552668 1.43494 0.626132 1.61229 0.756899 1.74306L6.52079 7.50001L0.756899 13.257C0.684203 13.3192 0.625161 13.3958 0.583478 13.482C0.541795 13.5681 0.518372 13.662 0.514678 13.7576C0.510984 13.8532 0.527098 13.9486 0.562011 14.0377C0.596924 14.1268 0.649881 14.2078 0.717558 14.2755C0.785235 14.3431 0.866171 14.3961 0.955285 14.431C1.0444 14.4659 1.13977 14.482 1.23541 14.4783C1.33105 14.4746 1.42489 14.4512 1.51104 14.4095C1.5972 14.3679 1.67381 14.3088 1.73607 14.2361L7.49995 8.47917L13.2569 14.2361C13.3897 14.3499 13.5606 14.4093 13.7354 14.4026C13.9102 14.3958 14.076 14.3234 14.1997 14.1997C14.3233 14.076 14.3958 13.9102 14.4025 13.7355C14.4093 13.5607 14.3498 13.3898 14.2361 13.257L8.47912 7.50001Z" fill="#FF8383"/>
</svg>
