<svg width="19" height="19" viewBox="0 0 19 19" fill="none" xmlns="http://www.w3.org/2000/svg">
<path d="M12.375 0.15625C8.82078 0.15625 5.90625 3.07078 5.90625 6.625C5.90625 6.99875 5.96734 7.32794 6.01837 7.65856L0.3575 13.295L0.15625 13.5207V18.8438H5.1875V16.6875H7.34375V14.5312H9.5V12.3966C10.3481 12.8134 11.3364 13.0938 12.375 13.0938C15.9292 13.0938 18.8438 10.1792 18.8438 6.625C18.8438 3.07078 15.9292 0.15625 12.375 0.15625ZM12.375 1.59375C15.1458 1.59375 17.4062 3.85422 17.4062 6.625C17.4062 9.39578 15.1458 11.6562 12.375 11.6562C11.5202 11.6472 10.6803 11.4314 9.92694 11.0273L9.74725 10.9375H8.0625V13.0938H5.90625V15.25H3.75V17.4062H1.59375V14.1266L7.27619 8.42188L7.54572 8.17463L7.47959 7.79369C7.40772 7.36244 7.34447 6.97647 7.34447 6.625C7.34447 3.85422 9.60494 1.59375 12.3757 1.59375H12.375ZM13.8125 3.75C13.6211 3.74567 13.4307 3.77963 13.2526 3.84989C13.0745 3.92014 12.9122 4.02527 12.7752 4.15911C12.6383 4.29296 12.5295 4.45281 12.4552 4.62928C12.3809 4.80575 12.3425 4.99529 12.3425 5.18677C12.3425 5.37825 12.3807 5.56781 12.4549 5.74432C12.5291 5.92083 12.6378 6.08074 12.7747 6.21465C12.9116 6.34856 13.0738 6.45377 13.2519 6.52412C13.43 6.59446 13.6203 6.62851 13.8118 6.62428C14.1874 6.61598 14.5448 6.46096 14.8075 6.19243C15.0702 5.92389 15.2174 5.56317 15.2175 5.18749C15.2176 4.81181 15.0706 4.45102 14.808 4.18235C14.5454 3.91368 14.1881 3.75849 13.8125 3.75Z" fill="#FF8383"/>
</svg>
