<svg width="20" height="19" viewBox="0 0 20 19" fill="none" xmlns="http://www.w3.org/2000/svg">
<path d="M9.99998 1.595C8.91038 0.593107 7.48419 0.0370491 6.00398 0.0370026C5.22052 0.0378183 4.44495 0.193562 3.72192 0.495271C2.99888 0.79698 2.34265 1.2387 1.79098 1.795C-0.562019 4.158 -0.561019 7.854 1.79298 10.207L9.12498 17.539C9.29498 17.838 9.62298 18.031 9.99998 18.031C10.1548 18.0295 10.3071 17.9917 10.4446 17.9207C10.5822 17.8496 10.7011 17.7474 10.792 17.622L18.207 10.207C20.561 7.853 20.561 4.158 18.205 1.791C17.6536 1.23572 16.9979 0.794899 16.2756 0.493886C15.5532 0.192872 14.7785 0.0376022 13.996 0.0370026C12.5158 0.0372445 11.0897 0.593275 9.99998 1.595ZM16.791 3.205C18.354 4.776 18.355 7.23 16.793 8.793L9.99998 15.586L3.20698 8.793C1.64498 7.23 1.64598 4.776 3.20498 3.209C3.96498 2.453 4.95898 2.037 6.00398 2.037C7.04898 2.037 8.03898 2.453 8.79298 3.207L9.29298 3.707C9.38577 3.79995 9.49597 3.87369 9.61729 3.924C9.7386 3.97431 9.86865 4.0002 9.99998 4.0002C10.1313 4.0002 10.2614 3.97431 10.3827 3.924C10.504 3.87369 10.6142 3.79995 10.707 3.707L11.207 3.207C12.719 1.698 15.281 1.702 16.791 3.205Z" fill="#FF8383"/>
</svg>
