<svg width="21" height="21" viewBox="0 0 21 21" fill="none" xmlns="http://www.w3.org/2000/svg">
<path d="M15.422 5.13334L11.0367 0.763339C10.8935 0.619 10.6989 0.53743 10.4956 0.536567C10.2923 0.535704 10.097 0.61562 9.95259 0.758739L9.94799 0.763339L5.57799 5.13334H1.29999C1.09666 5.13334 0.901655 5.21411 0.757877 5.35789C0.614099 5.50167 0.533325 5.69667 0.533325 5.90001V19.7C0.533325 19.9033 0.614099 20.0983 0.757877 20.2421C0.901655 20.3859 1.09666 20.4667 1.29999 20.4667H19.7C19.9033 20.4667 20.0983 20.3859 20.2421 20.2421C20.3859 20.0983 20.4667 19.9033 20.4667 19.7V5.90001C20.4667 5.69667 20.3859 5.50167 20.2421 5.35789C20.0983 5.21411 19.9033 5.13334 19.7 5.13334H15.422ZM10.5 2.38867L13.2447 5.13334H7.75533L10.5 2.38867ZM18.9333 18.9333H2.06666V6.66667H18.9333V18.9333ZM6.66666 11.2667C6.25999 11.2667 5.86998 11.1051 5.58243 10.8176C5.29487 10.53 5.13333 10.14 5.13333 9.73334C5.13333 9.32667 5.29487 8.93666 5.58243 8.64911C5.86998 8.36155 6.25999 8.20001 6.66666 8.20001C7.07332 8.20001 7.46333 8.36155 7.75089 8.64911C8.03844 8.93666 8.19999 9.32667 8.19999 9.73334C8.19999 10.14 8.03844 10.53 7.75089 10.8176C7.46333 11.1051 7.07332 11.2667 6.66666 11.2667ZM17.4 17.4H5.89999L8.19999 12.8L10.1167 16.6333L13.5667 9.73334L17.4 17.4Z" fill="#FF8383"/>
</svg>
